<?xml version="1.0" encoding="UTF-8" standalone="no"?>
<!DOCTYPE svg PUBLIC "-//W3C//DTD SVG 1.1//EN" "http://www.w3.org/Graphics/SVG/1.1/DTD/svg11.dtd">
<svg width="100%" height="100%" viewBox="0 0 24 24" version="1.1" xmlns="http://www.w3.org/2000/svg" xmlns:xlink="http://www.w3.org/1999/xlink" xml:space="preserve" xmlns:serif="http://www.serif.com/" style="fill-rule:evenodd;clip-rule:evenodd;stroke-linejoin:round;stroke-miterlimit:2;">
    <path d="M21,10L23,16L21,16L23,22L4,22L1,13L3,13L1,7L3,7L1,1L20,1L23,10L21,10ZM4.108,10L5.442,14L20.225,14L18.892,10L4.108,10ZM18.558,3L3.775,3C3.775,3 5.442,8 5.442,8L20.225,8L18.558,3ZM4.108,16L5.442,20L20.225,20L18.892,16L4.108,16Z" style="fill:rgb(47,47,47);"/>
</svg>
