<?xml version="1.0" encoding="utf-8"?>
<!-- Generator: Adobe Illustrator 27.9.0, SVG Export Plug-In . SVG Version: 6.00 Build 0)  -->
<svg version="1.1" id="Layer_1" xmlns:serif="http://www.serif.com/"
	 xmlns="http://www.w3.org/2000/svg" xmlns:xlink="http://www.w3.org/1999/xlink" x="0px" y="0px" viewBox="0 0 24 24"
	 style="enable-background:new 0 0 24 24;" xml:space="preserve">
<style type="text/css">
	.st0{fill-rule:evenodd;clip-rule:evenodd;fill:#2F2F2F;}
</style>
<path class="st0" d="M1,1v18.3h21.9V1C22.9,1,1,1,1,1z M21.1,17.1H2.9V2.9h18.3V17.1z"/>
<rect x="5.6" y="20" class="st0" width="12.7" height="2.3"/>
<path class="st0" d="M6.9,16H4v-4.2c0,0,0.7-0.1,1.4-0.5c0.9-0.4,1.4-1,1.4-1V16z"/>
<path class="st0" d="M17.1,16H20v-4.2c0,0-0.7-0.1-1.4-0.5c-0.9-0.4-1.4-1-1.4-1V16z"/>
<path class="st0" d="M15.7,4L15.7,4H8.3l0,0H4v6.8c2.2-0.4,4.3-2.7,5.1-5.5c0.2,0.1,0.4,0.1,0.6,0.1c0.5,0,0.9-0.2,1.1-0.6
	c0.3,0.3,0.7,0.6,1.1,0.6s0.9-0.2,1.1-0.6c0.3,0.3,0.7,0.6,1.1,0.6c0.2,0,0.4-0.1,0.6-0.1c0.8,2.8,2.9,5.1,5.1,5.5V4H15.7z"/>
</svg>
